# xmcd
#
# Track frame offsets:
#       150
#       13950
#       29625
#       45525
#       54825
#       98775
#       111975
#       125700
#       147225
#       164850
#       187350
#       216975
#       235275
#       254550
#       276525
#       291525
#
# Disc length: 4232 seconds
#
# Revision: 1
# Processed by: cddbd v1.5PL3 Copyright (c) Steve Scherf et al.
# Submitted via: WaveLab 4.01
#
DISCID=13108610
DTITLE=The Outlaws - Best Of The Outlaws
DYEAR=1900
DGENRE=
TTITLE0=There Goes Another Love Song
TTITLE1=Knoxville Girl
TTITLE2=Song For You
TTITLE3=Waterhole
TTITLE4=Green Grass and High Tides
TTITLE5=Breaker Breaker
TTITLE6=South Carolina
TTITLE7=Freeborn Man
TTITLE8=Prisoner
TTITLE9=Girl From Ohio
TTITLE10=Stick Around For Rock and Roll
TTITLE11=Hurry Sundown
TTITLE12=Gunsmoke
TTITLE13=You Are The Show
TTITLE14=Take It Any Way You Want It
TTITLE15=(Ghost) Riders In The Sky
EXTD=
EXTT0=
EXTT1=
EXTT2=
EXTT3=
EXTT4=
EXTT5=
EXTT6=
EXTT7=
EXTT8=
EXTT9=
EXTT10=
EXTT11=
EXTT12=
EXTT13=
EXTT14=
EXTT15=
PLAYORDER=
